<svg xmlns="http://www.w3.org/2000/svg" xmlns:xlink="http://www.w3.org/1999/xlink" style="display:none">
  <!-- React Icon -->
  <symbol id="react" viewBox="0 0 569 512">
    <g fill="none" fill-rule="evenodd">
      <g transform="translate(-227, -256)" fill="#58C4DC" fill-rule="nonzero">
        <g transform="translate(227, 256)">
          <path d="M285.5,201 C255.400481,201 231,225.400481 231,255.5 C231,285.599519 255.400481,310 285.5,310 C315.599519,310 340,285.599519 340,255.5 C340,225.400481 315.599519,201 285.5,201" id="Path"></path>
          <path d="M568.959856,255.99437 C568.959856,213.207656 529.337802,175.68144 466.251623,150.985214 C467.094645,145.423543 467.85738,139.922107 468.399323,134.521063 C474.621631,73.0415145 459.808523,28.6686204 426.709856,9.5541429 C389.677085,-11.8291748 337.36955,3.69129898 284.479928,46.0162134 C231.590306,3.69129898 179.282771,-11.8291748 142.25,9.5541429 C109.151333,28.6686204 94.3382249,73.0415145 100.560533,134.521063 C101.102476,139.922107 101.845139,145.443621 102.708233,151.02537 C97.4493791,153.033193 92.2908847,155.161486 87.3331099,157.39017 C31.0111824,182.708821 0,217.765415 0,255.99437 C0,298.781084 39.6220545,336.307301 102.708233,361.003527 C101.845139,366.565197 101.102476,372.066633 100.560533,377.467678 C94.3382249,438.947226 109.151333,483.32012 142.25,502.434597 C153.629683,508.887578 166.52439,512.186771 179.603923,511.991836 C210.956328,511.991836 247.567589,495.487529 284.479928,465.972527 C321.372196,495.487529 358.003528,511.991836 389.396077,511.991836 C402.475265,512.183856 415.36922,508.884856 426.75,502.434597 C459.848667,483.32012 474.661775,438.947226 468.439467,377.467678 C467.897524,372.066633 467.134789,366.565197 466.291767,361.003527 C529.377946,336.347457 569,298.761006 569,255.99437 M389.155214,27.1025182 C397.565154,26.899606 405.877839,28.9368502 413.241569,33.0055186 C436.223966,46.2772304 446.540955,82.2775015 441.522965,131.770345 C441.181741,135.143488 440.780302,138.556788 440.298575,141.990165 C414.066922,134.08804 387.205771,128.452154 360.010724,125.144528 C343.525021,103.224055 325.192524,82.7564475 305.214266,63.9661533 C336.586743,39.7116483 366.032313,27.1025182 389.135142,27.1025182 M378.356498,310.205598 C368.204912,327.830733 357.150626,344.919965 345.237759,361.405091 C325.045049,363.479997 304.758818,364.51205 284.459856,364.497299 C264.167589,364.51136 243.888075,363.479308 223.702025,361.405091 C211.820914,344.919381 200.80007,327.83006 190.683646,310.205598 C180.532593,292.629285 171.306974,274.534187 163.044553,255.99437 C171.306974,237.454554 180.532593,219.359455 190.683646,201.783142 C200.784121,184.229367 211.770999,167.201087 223.601665,150.764353 C243.824636,148.63809 264.145559,147.579168 284.479928,147.591877 C304.772146,147.579725 325.051559,148.611772 345.237759,150.68404 C357.109048,167.14607 368.136094,184.201112 378.27621,201.783142 C388.419418,219.363718 397.644825,237.458403 405.915303,255.99437 C397.644825,274.530337 388.419418,292.625022 378.27621,310.205598 M419.724813,290.127366 C426.09516,307.503536 431.324985,325.277083 435.380944,343.334682 C417.779633,348.823635 399.836793,353.149774 381.668372,356.285142 C388.573127,345.871232 395.263781,335.035679 401.740334,323.778483 C408.143291,312.655143 414.144807,301.431411 419.805101,290.207679 M246.363271,390.377981 C258.848032,391.140954 271.593728,391.582675 284.5,391.582675 C297.406272,391.582675 310.232256,391.140954 322.737089,390.377981 C310.880643,404.583418 298.10766,417.997563 284.5,430.534446 C270.921643,417.999548 258.18192,404.585125 246.363271,390.377981 Z M187.311556,356.244986 C169.137286,353.123646 151.187726,348.810918 133.578912,343.334682 C137.618549,325.305649 142.828222,307.559058 149.174827,290.207679 C154.754833,301.431411 160.736278,312.655143 167.239594,323.778483 C173.74291,334.901824 180.467017,345.864539 187.311556,356.285142 M149.174827,221.760984 C142.850954,204.473938 137.654787,186.794745 133.619056,168.834762 C151.18418,163.352378 169.085653,159.013101 187.211197,155.844146 C180.346585,166.224592 173.622478,176.986525 167.139234,188.210257 C160.65599,199.433989 154.734761,210.517173 149.074467,221.760984 M322.616657,121.590681 C310.131896,120.827708 297.3862,120.385987 284.379568,120.385987 C271.479987,120.385987 258.767744,120.787552 246.242839,121.590681 C258.061488,107.383537 270.801211,93.9691137 284.379568,81.4342157 C297.99241,93.9658277 310.765727,107.380324 322.616657,121.590681 Z M401.70019,188.210257 C395.196875,176.939676 388.472767,166.09743 381.527868,155.68352 C399.744224,158.819049 417.734224,163.151949 435.380944,168.654058 C431.331963,186.680673 426.122466,204.426664 419.785029,221.781062 C414.205023,210.55733 408.203506,199.333598 401.720262,188.230335 M127.517179,131.790423 C122.438973,82.3176579 132.816178,46.2973086 155.778503,33.0255968 C163.144699,28.9632474 171.455651,26.9264282 179.864858,27.1225964 C202.967687,27.1225964 232.413257,39.7317265 263.785734,63.9862316 C243.794133,82.7898734 225.448298,103.270812 208.949132,125.204763 C181.761691,128.528025 154.90355,134.14313 128.661281,141.990165 C128.199626,138.556788 127.778115,135.163566 127.456963,131.790423 M98.4529773,182.106474 C101.54406,180.767925 104.695358,179.429376 107.906872,178.090828 C114.220532,204.735668 122.781793,230.7969 133.498624,255.99437 C122.761529,281.241316 114.193296,307.357063 107.8868,334.058539 C56.7434387,313.076786 27.0971497,284.003505 27.0971497,255.99437 C27.0971497,229.450947 53.1907013,202.526037 98.4529773,182.106474 Z M155.778503,478.963143 C132.816178,465.691432 122.438973,429.671082 127.517179,380.198317 C127.838331,376.825174 128.259842,373.431953 128.721497,369.978497 C154.953686,377.878517 181.814655,383.514365 209.009348,386.824134 C225.500295,408.752719 243.832321,429.233234 263.805806,448.042665 C220.069,481.834331 180.105722,492.97775 155.838719,478.963143 M441.502893,380.198317 C446.520883,429.691161 436.203894,465.691432 413.221497,478.963143 C388.974566,493.017906 348.991216,481.834331 305.274481,448.042665 C325.241364,429.232737 343.566681,408.752215 360.050868,386.824134 C387.245915,383.516508 414.107066,377.880622 440.338719,369.978497 C440.820446,373.431953 441.221885,376.825174 441.563109,380.198317 M461.193488,334.018382 C454.869166,307.332523 446.294494,281.231049 435.561592,255.99437 C446.289797,230.744081 454.857778,204.629101 461.173416,177.930202 C512.216417,198.911955 541.942994,227.985236 541.942994,255.99437 C541.942994,284.003505 512.296705,313.076786 461.153344,334.058539" id="Shape"></path>
        </g>
      </g>
    </g>
  </symbol>
  <!-- Node Icon -->
  <symbol id="node" viewBox="0 0 256 292">
    <defs>
      <linearGradient id="a" x1="68.188%" x2="27.823%" y1="17.487%" y2="89.755%"><stop offset="0%" stop-color="#41873F"/><stop offset="32.88%" stop-color="#418B3D"/><stop offset="63.52%" stop-color="#419637"/><stop offset="93.19%" stop-color="#3FA92D"/><stop offset="100%" stop-color="#3FAE2A"/></linearGradient>
      <linearGradient id="c" x1="43.277%" x2="159.245%" y1="55.169%" y2="-18.306%"><stop offset="13.76%" stop-color="#41873F"/><stop offset="40.32%" stop-color="#54A044"/><stop offset="71.36%" stop-color="#66B848"/><stop offset="90.81%" stop-color="#6CC04A"/></linearGradient>
      <linearGradient id="f" x1="-4.389%" x2="101.499%" y1="49.997%" y2="49.997%"><stop offset="9.192%" stop-color="#6CC04A"/><stop offset="28.64%" stop-color="#66B848"/><stop offset="59.68%" stop-color="#54A044"/><stop offset="86.24%" stop-color="#41873F"/></linearGradient>
      <path id="b" d="M134.923 1.832c-4.344-2.443-9.502-2.443-13.846 0L6.787 67.801C2.443 70.244 0 74.859 0 79.745v132.208c0 4.887 2.715 9.502 6.787 11.945l114.29 65.968c4.344 2.444 9.502 2.444 13.846 0l114.29-65.968c4.344-2.443 6.787-7.058 6.787-11.945V79.745c0-4.886-2.715-9.501-6.787-11.944L134.923 1.832Z"/>
      <path id="e" d="M134.923 1.832c-4.344-2.443-9.502-2.443-13.846 0L6.787 67.801C2.443 70.244 0 74.859 0 79.745v132.208c0 4.887 2.715 9.502 6.787 11.945l114.29 65.968c4.344 2.444 9.502 2.444 13.846 0l114.29-65.968c4.344-2.443 6.787-7.058 6.787-11.945V79.745c0-4.886-2.715-9.501-6.787-11.944L134.923 1.832Z"/>
    </defs>
    <path fill="url(#a)" d="M134.923 1.832c-4.344-2.443-9.502-2.443-13.846 0L6.787 67.801C2.443 70.244 0 74.859 0 79.745v132.208c0 4.887 2.715 9.502 6.787 11.945l114.29 65.968c4.344 2.444 9.502 2.444 13.846 0l114.29-65.968c4.344-2.443 6.787-7.058 6.787-11.945V79.745c0-4.886-2.715-9.501-6.787-11.944L134.923 1.832Z"/>
    <mask id="d" fill="#fff"><use xlink:href="#b"/></mask>
    <path fill="url(#c)" d="M249.485 67.8 134.65 1.833c-1.086-.542-2.443-1.085-3.529-1.357L2.443 220.912c1.086 1.357 2.444 2.443 3.8 3.258l114.834 65.968c3.258 1.9 7.059 2.443 10.588 1.357L252.47 70.515c-.815-1.086-1.9-1.9-2.986-2.714Z" mask="url(#d)"/>
    <mask id="g" fill="#fff"><use xlink:href="#e"/></mask>
    <path fill="url(#f)" d="M249.756 223.898c3.258-1.9 5.701-5.158 6.787-8.687L130.579.204c-3.258-.543-6.787-.272-9.773 1.628L6.786 67.53l122.979 224.238c1.628-.272 3.529-.815 5.158-1.63l114.833-66.239Z" mask="url(#g)"/>
  </symbol>
  <!-- TypeScript Icon -->
  <symbol id="typescript" viewBox="0 0 256 256">
    <rect width="256" height="256" rx="20" fill="#3178C6"/>
    <path d="M150.518 200.475v27.62c4.492 2.302 9.805 4.028 15.938 5.179 6.133 1.151 12.597 1.726 19.393 1.726 6.622 0 12.914-.633 18.874-1.899 5.96-1.266 11.187-3.352 15.678-6.257 4.492-2.906 8.048-6.704 10.669-11.394 2.62-4.689 3.93-10.486 3.93-17.391 0-5.006-.749-9.394-2.246-13.163a30.748 30.748 0 0 0-6.479-10.055c-2.821-2.935-6.205-5.567-10.149-7.898-3.945-2.33-8.394-4.531-13.347-6.602-3.628-1.497-6.881-2.949-9.761-4.359-2.879-1.41-5.327-2.848-7.342-4.316-2.016-1.467-3.571-3.021-4.665-4.661-1.094-1.64-1.641-3.495-1.641-5.567 0-1.899.489-3.61 1.468-5.135s2.362-2.834 4.147-3.927c1.785-1.094 3.973-1.942 6.565-2.547 2.591-.604 5.471-.906 8.638-.906 2.304 0 4.737.173 7.299.518 2.563.345 5.14.877 7.732 1.597a53.669 53.669 0 0 1 7.558 2.719 41.7 41.7 0 0 1 6.781 3.797v-25.807c-4.204-1.611-8.797-2.805-13.778-3.582-4.981-.777-10.697-1.165-17.147-1.165-6.565 0-12.784.705-18.658 2.115-5.874 1.409-11.043 3.61-15.506 6.602-4.463 2.993-7.99 6.805-10.582 11.437-2.591 4.632-3.887 10.17-3.887 16.615 0 8.228 2.375 15.248 7.127 21.06 4.751 5.811 11.963 10.731 21.638 14.759a291.458 291.458 0 0 1 10.625 4.575c3.283 1.496 6.119 3.049 8.509 4.66 2.39 1.611 4.276 3.366 5.658 5.265 1.382 1.899 2.073 4.057 2.073 6.474a9.901 9.901 0 0 1-1.296 4.963c-.863 1.524-2.174 2.848-3.93 3.97-1.756 1.122-3.945 1.999-6.565 2.632-2.62.633-5.687.95-9.2.95-5.989 0-11.92-1.05-17.794-3.151-5.875-2.1-11.317-5.25-16.327-9.451Zm-46.036-68.733H140V109H41v22.742h35.345V233h28.137V131.742Z" fill="#FFF"/>
  </symbol>

  <symbol id="html" viewBox="0 0 452 520">
    <path fill="#e34f26" d="M41 460L0 0h451l-41 460-185 52" />
    <path fill="#ef652a" d="M226 472l149-41 35-394H226" />
    <path fill="#ecedee" d="M226 208h-75l-5-58h80V94H84l15 171h127zm0 147l-64-17-4-45h-56l7 89 117 32z"/>
    <path fill="#fff" d="M226 265h69l-7 73-62 17v59l115-32 16-174H226zm0-171v56h136l5-56z"/>
  </symbol>
  
  <!-- CSS Icon -->
  <symbol id="css" viewBox="0 0 1000 1000">
    <path fill="#639" d="M0 0h840a160 160 0 0 1 160 160v680a160 160 0 0 1-160 160H160A160 160 0 0 1 0 840V0Z"/>
    <path fill="#fff" d="M816.54 919.9c-32.39 0-57.16-9.42-74.5-28.35-17.15-19.03-26.08-46.18-26.88-81.64h69.8c.4 31.36 11.42 47.08 33.08 47.08 11.04 0 18.86-3.5 23.37-10.42 4.41-6.9 6.72-17.93 6.72-33.05 0-12.02-3.01-22.04-8.83-29.95a73.2 73.2 0 0 0-29.48-21.14L783.95 750c-23.06-11.02-39.81-24.04-50.14-39.27-10.03-15.13-15.04-36.36-15.04-63.5 0-30.36 8.83-55 26.37-73.94 18.05-18.93 42.62-28.34 74-28.34 30.3 0 53.76 9.31 70.3 27.84 16.85 18.64 25.67 45.28 26.38 80.14h-67.19c.4-11.4-1.9-22.72-6.72-33.06-3.8-7.6-11.23-11.41-22.26-11.41-19.65 0-29.48 11.71-29.48 35.05 0 11.83 2.4 21.04 7.22 28.05A65.18 65.18 0 0 0 822.76 689l24.77 10.92c25.57 11.72 44.02 26.05 55.35 43.38 11.43 17.23 17.05 40.27 17.05 69.12 0 34.56-9.03 61.1-27.38 79.63-18.25 18.53-43.62 27.85-76 27.85Zm-225.42 0c-32.4 0-57.16-9.42-74.51-28.35-17.15-19.03-26.07-46.18-26.87-81.64h69.79c.4 31.36 11.43 47.08 33.1 47.08 11.02 0 18.84-3.5 23.25-10.42 4.52-6.9 6.72-17.93 6.72-33.05 0-12.02-2.9-22.04-8.72-29.95a73.2 73.2 0 0 0-29.48-21.14L558.53 750c-23.07-11.02-39.81-24.04-50.14-39.27-10.03-15.13-15.04-36.36-15.04-63.5 0-30.36 8.82-55 26.37-73.94 18.05-18.93 42.62-28.34 74-28.34 30.29 0 53.75 9.31 70.2 27.84 17.05 18.64 25.77 45.28 26.47 80.14h-67.18c.4-11.4-1.9-22.72-6.72-33.06-3.81-7.6-11.23-11.41-22.26-11.41-19.66 0-29.49 11.71-29.49 35.05 0 11.83 2.41 21.04 7.22 28.05A65.18 65.18 0 0 0 597.33 689l24.77 10.92c25.57 11.72 44.02 26.05 55.36 43.38 11.33 17.23 17.04 40.27 17.04 69.12 0 34.56-9.12 61.1-27.37 79.63-18.25 18.53-43.62 27.85-76.01 27.85Zm-234.75 0c-31.7 0-56.86-8.62-75.51-25.85-18.65-17.12-27.88-42.87-27.88-76.93V648.83c0-33.85 9.83-59.5 29.48-77.13 19.96-17.43 46.13-26.24 78.52-26.24 31.39 0 56.15 9.01 74.5 26.84 18.56 17.93 27.88 44.58 27.88 80.14v13.32h-73.9v-12.92c0-13.72-3.01-23.84-8.83-30.45a26.46 26.46 0 0 0-21.66-10.32c-12.03 0-20.55 4.1-25.37 12.42a79.04 79.04 0 0 0-6.72 36.66v146.26c0 30.55 10.74 46.08 32.1 46.38 10.02 0 17.54-3.61 22.76-10.82a51.74 51.74 0 0 0 7.72-30.46V801.6h73.9v11.42c0 23.74-4.61 43.57-13.94 59.4a88.8 88.8 0 0 1-38.2 35.66 121.46 121.46 0 0 1-54.85 11.82Z"/>
  </symbol>
  <!-- Instagram Icon -->
  <symbol id="instagram" viewBox="0 0 256 256">
    <path fill="#fff" d="M128 23.064c34.177 0 38.225.13 51.722.745 12.48.57 19.258 2.655 23.769 4.408 5.974 2.322 10.238 5.096 14.717 9.575 4.48 4.479 7.253 8.743 9.575 14.717 1.753 4.511 3.838 11.289 4.408 23.768.615 13.498.745 17.546.745 51.723 0 34.178-.13 38.226-.745 51.723-.57 12.48-2.655 19.257-4.408 23.768-2.322 5.974-5.096 10.239-9.575 14.718-4.479 4.479-8.743 7.253-14.717 9.574-4.511 1.753-11.289 3.839-23.769 4.408-13.495.616-17.543.746-51.722.746-34.18 0-38.228-.13-51.723-.746-12.48-.57-19.257-2.655-23.768-4.408-5.974-2.321-10.239-5.095-14.718-9.574-4.479-4.48-7.253-8.744-9.574-14.718-1.753-4.51-3.839-11.288-4.408-23.768-.616-13.497-.746-17.545-.746-51.723 0-34.177.13-38.225.746-51.722.57-12.48 2.655-19.258 4.408-23.769 2.321-5.974 5.095-10.238 9.574-14.717 4.48-4.48 8.744-7.253 14.718-9.575 4.51-1.753 11.289-3.838 23.768-4.408 13.497-.615 17.545-.745 51.723-.745M128 0C93.237 0 88.878.147 75.226.77c-13.625.622-22.93 2.786-31.071 5.95-8.418 3.271-15.556 7.648-22.672 14.764C14.367 28.6 9.991 35.738 6.72 44.155 3.555 52.297 1.392 61.602.77 75.226.147 88.878 0 93.237 0 128c0 34.763.147 39.122.77 52.774.622 13.625 2.785 22.93 5.95 31.071 3.27 8.417 7.647 15.556 14.763 22.672 7.116 7.116 14.254 11.492 22.672 14.763 8.142 3.165 17.446 5.328 31.07 5.95 13.653.623 18.012.77 52.775.77s39.122-.147 52.774-.77c13.624-.622 22.929-2.785 31.07-5.95 8.418-3.27 15.556-7.647 22.672-14.763 7.116-7.116 11.493-14.254 14.764-22.672 3.164-8.142 5.328-17.446 5.95-31.07.623-13.653.77-18.012.77-52.775s-.147-39.122-.77-52.774c-.622-13.624-2.786-22.929-5.95-31.07-3.271-8.418-7.648-15.556-14.764-22.672C227.4 14.368 220.262 9.99 211.845 6.72c-8.142-3.164-17.447-5.328-31.071-5.95C167.122.147 162.763 0 128 0Zm0 62.27C91.698 62.27 62.27 91.7 62.27 128c0 36.302 29.428 65.73 65.73 65.73 36.301 0 65.73-29.428 65.73-65.73 0-36.301-29.429-65.73-65.73-65.73Zm0 108.397c-23.564 0-42.667-19.103-42.667-42.667S104.436 85.333 128 85.333s42.667 19.103 42.667 42.667-19.103 42.667-42.667 42.667Zm83.686-110.994c0 8.484-6.876 15.36-15.36 15.36-8.483 0-15.36-6.876-15.36-15.36 0-8.483 6.877-15.36 15.36-15.36 8.484 0 15.36 6.877 15.36 15.36Z"/>
  </symbol>
  <!-- X (Twitter) Icon -->
  <symbol id="x" viewBox="0 0 1200 1227">
    <path fill="#fff" d="M714.163 519.284 1160.89 0h-105.86L667.137 450.887 357.328 0H0l468.492 681.821L0 1226.37h105.866l409.625-476.152 327.181 476.152H1200L714.137 519.284h.026ZM569.165 687.828l-47.468-67.894-377.686-540.24h162.604l304.797 435.991 47.468 67.894 396.2 566.721H892.476L569.165 687.854v-.026Z"/>
  </symbol>
  <!-- YouTube Icon -->
  <symbol id="youtube" viewBox="0 0 256 180">
    <path d="M250.346 28.075A32.18 32.18 0 0 0 227.69 5.418C207.824 0 127.87 0 127.87 0S47.912.164 28.046 5.582A32.18 32.18 0 0 0 5.39 28.24c-6.009 35.298-8.34 89.084.165 122.97a32.18 32.18 0 0 0 22.656 22.657c19.866 5.418 99.822 5.418 99.822 5.418s79.955 0 99.82-5.418a32.18 32.18 0 0 0 22.657-22.657c6.338-35.348 8.291-89.1-.164-123.134Z" fill="red"/>
    <path fill="#FFF" d="m102.421 128.06 66.328-38.418-66.328-38.418z"/>
  </symbol>
  <!-- LinkedIn Icon -->
  <symbol id="linkedin" viewBox="0 0 256 256">
    <path d="M218.123 218.127h-37.931v-59.403c0-14.165-.253-32.4-19.728-32.4-19.756 0-22.779 15.434-22.779 31.369v60.43h-37.93V95.967h36.413v16.694h.51a39.907 39.907 0 0 1 35.928-19.733c38.445 0 45.533 25.288 45.533 58.186l-.016 67.013ZM56.955 79.27c-12.157.002-22.014-9.852-22.016-22.009-.002-12.157 9.851-22.014 22.008-22.016 12.157-.003 22.014 9.851 22.016 22.008A22.013 22.013 0 0 1 56.955 79.27m18.966 138.858H37.95V95.967h37.97v122.16ZM237.033.018H18.89C8.58-.098.125 8.161-.001 18.471v219.053c.122 10.315 8.576 18.582 18.89 18.474h218.144c10.336.128 18.823-8.139 18.966-18.474V18.454c-.147-10.33-8.635-18.588-18.966-18.453" fill="#0A66C2"/>
  </symbol>
  <!-- GitHub Icon -->
  <symbol id="github" viewBox="0 0 24 24">
  <path d="M12 1A10.89 10.89 0 0 0 1 11.77 10.79 10.79 0 0 0 8.52 22c.55.1.75-.23.75-.52v-1.83c-3.06.65-3.71-1.44-3.71-1.44a2.86 2.86 0 0 0-1.22-1.58c-1-.66.08-.65.08-.65a2.31 2.31 0 0 1 1.68 1.11 2.37 2.37 0 0 0 3.2.89 2.33 2.33 0 0 1 .7-1.44c-2.44-.27-5-1.19-5-5.32a4.15 4.15 0 0 1 1.11-2.89 3.78 3.78 0 0 1 .11-2.84s.93-.29 3 1.1a10.68 10.68 0 0 1 5.5 0c2.1-1.39 3-1.1 3-1.1a3.78 3.78 0 0 1 .11 2.84A4.15 4.15 0 0 1 19 11.2c0 4.14-2.58 5.05-5 5.32a2.5 2.5 0 0 1 .75 2v2.95c0 .29.2.63.75.52A10.8 10.8 0 0 0 23 11.77 10.89 10.89 0 0 0 12 1z"/>
</symbol>

  <!-- Strava Icon -->
  <symbol id="strava" width="512" height="512" style="enable-background:new 0 0 512 512"><path d="M226.172 26.001 90.149 288.345h80.141l55.882-104.309 55.433 104.309h79.511z" style="fill:#f50"/><path d="m361.116 288.345-39.441 79.241-40.07-79.241h-60.734l100.804 197.654 100.176-197.654z" style="fill:#ffaf8a"/></symbol>
  <!-- Twitch Icon -->
  <symbol id="twitch" viewBox="0 0 2400 2800">
    <path fill="#fff" d="m2200 1300-400 400h-400l-350 350v-350H600V200h1600z"/>
    <g fill="#9146ff">
      <path d="M500 0 0 500v1800h600v500l500-500h400l900-900V0H500zm1700 1300-400 400h-400l-350 350v-350H600V200h1600v1100z"/>
      <path d="M1700 550h200v600h-200zm-550 0h200v600h-200z"/>
    </g>
  </symbol>
  <!-- Verified Icon -->
  <symbol id="verified" viewBox="0 0 20 20">
    <path fill-rule="evenodd" d="M10 18a8 8 0 100-16 8 8 0 000 16zm3.707-8.707a1 1 0 00-1.414-1.414L9 11.172l-1.293-1.293a1 1 0 00-1.414 1.414l2 2a1 1 0 001.414 0l4-4z" clip-rule="evenodd" />
  </symbol>
<symbol id="figma" viewBox="0 0 512 512">
		<g transform="translate(3.4540751e-7,0.66235479)">
			<path
				style="fill:#2a7fff"
				d="m 256,342.10861 c 0,-0.95108 -10.44573,-1.18963 -46.75,-1.06765 -50.9697,0.17126 -55.10478,-0.17374 -69.25,-5.77768 C 114.78818,325.27507 95.214736,303.00321 88.356354,276.5 c -2.52809,-9.76943 -2.517683,-31.30032 0.01982,-41 6.948924,-26.56249 26.091256,-48.54013 50.946636,-58.4927 C 153.7132,171.2451 156.55876,171 209.06538,171 H 257 l 0.029,36.75 c 0.0714,90.44125 -0.10903,134.66333 -0.55133,135.10563 -0.26273,0.26274 -0.4777,-0.0734 -0.4777,-0.74702 z"
			/>
			<path
				style="fill:#0000aa"
				d="m 210.20656,170.29964 45.70655,-0.31956 0.62511,-3.33211 c 0.34381,-1.83266 0.47586,-40.10116 0.29344,-85.041115 L 256.5,-0.1021505 306,0.24312593 c 48.00964,0.33488074 49.72581,0.41335564 57,2.60641887 50.24043,15.1467692 75.89284,67.1403402 56.59754,114.7146852 -9.98771,24.62562 -31.51197,43.36252 -58.09754,50.57402 -7.92379,2.14937 -8.90023,2.17153 -102.5,2.32549 -51.975,0.0855 -73.93205,0.0117 -48.79344,-0.1641 z"
			/>
			<path
				style="fill:#03baf4"
				d="m 193.81732,341.25089 c 11.72452,-0.16008 30.62452,-0.15988 42,4.5e-4 11.37547,0.16034 1.78268,0.29131 -21.31732,0.29107 -23.1,-2.5e-4 -32.40721,-0.13143 -20.68268,-0.29152 z m 132.44078,-1.3584 C 310.16665,337.21041 295.15134,329.10057 282.02134,316 c -12.33889,-12.31124 -18.99686,-23.83063 -23.11915,-40 -2.11128,-8.28134 -1.82021,-33.65943 0.4817,-42 9.01269,-32.6558 37.25756,-57.76465 69.92468,-62.16096 43.52163,-5.85709 82.90623,19.65461 94.83197,61.42821 1.99532,6.98925 2.35101,10.4984 2.35489,23.23275 0.004,14.30096 -0.15065,15.47408 -3.32611,25.17291 -7.97927,24.3711 -26.7673,44.59619 -49.64486,53.44208 -4.38654,1.69612 -10.91154,3.70629 -14.5,4.46706 -7.1628,1.51855 -24.5309,1.6831 -32.76636,0.31044 z"
			/>
			<path
				style="fill:#0055d4"
				d="M 154,168.49783 C 96.618677,156.89588 67.856139,94.005073 96.683817,43.172975 107.99762,23.223254 126.98586,8.8888604 150.1065,2.8437155 158.07247,0.7609261 160.97516,0.62918693 207.09337,0.25735678 l 48.59336,-0.39178623 0.65209,11.31721445 c 0.81967,14.225732 0.84716,153.521335 0.0309,156.567215 l -0.60297,2.25 -47.63337,-0.094 C 173.0741,169.83687 158.78415,169.46514 154,168.49783 Z"
			/>
			<path
				style="fill:#3771c8"
				d="M 157.04713,510.92611 C 109.64316,502.51046 78.203076,456.4032 87.884285,409.49799 94.494649,377.47093 118.5966,352.25238 150.43834,344.04592 157.90675,342.12111 161.26501,342 207.16929,342 h 48.79261 l 0.61264,2.44096 c 0.33695,1.34252 0.41033,23.05502 0.16307,48.25 -0.51351,52.3248 -0.84355,54.88173 -9.26908,71.80904 -10.84427,21.78671 -32.0591,38.99372 -55.46853,44.98967 -7.75897,1.98733 -27.32131,2.79127 -34.95287,1.43644 z"
			/>
		</g>
	</symbol>
	<symbol id="star" viewBox="0 0 256 256">
		<g>
			<path d="M245.235 153.524c14.012-14.012 14.011-36.811 0-50.823-6.787-6.788-15.812-10.525-25.411-10.525-2.28 0-4.523.208-6.712.617 9.538-6.524 15.72-17.495 15.72-29.694 0-19.816-16.122-35.937-35.938-35.937-12.223 0-23.213 6.205-29.733 15.776 2.157-11.377-1.226-23.537-9.87-32.18C146.506 3.97 137.48.232 127.882.232c-9.6 0-18.624 3.738-25.412 10.526-8.643 8.643-12.026 20.803-9.87 32.18-6.519-9.57-17.509-15.776-29.733-15.776-19.815 0-35.936 16.12-35.936 35.937 0 12.2 6.18 23.17 15.718 29.694a36.487 36.487 0 0 0-6.711-.617c-9.6 0-18.624 3.738-25.411 10.526C3.738 109.489 0 118.514 0 128.112c0 9.6 3.738 18.624 10.526 25.412 6.787 6.787 15.812 10.526 25.41 10.526 2.28 0 4.523-.208 6.712-.618-9.538 6.525-15.718 17.496-15.718 29.695 0 19.815 16.12 35.936 35.936 35.936 12.224 0 23.215-6.206 29.734-15.776-2.157 11.378 1.226 23.538 9.87 32.18 6.787 6.788 15.812 10.526 25.41 10.526 9.6 0 18.625-3.738 25.412-10.526 8.643-8.643 12.026-20.803 9.869-32.18 6.52 9.57 17.51 15.776 29.733 15.776 19.816 0 35.937-16.12 35.937-35.936 0-12.2-6.18-23.17-15.719-29.695 2.189.41 4.433.618 6.712.618 9.599 0 18.624-3.739 25.411-10.526"/>
			<path d="M234.391 113.538c-8.049-8.048-21.099-8.048-29.148 0h-42.184l29.829-29.828c11.383 0 20.61-9.228 20.61-20.611 0-11.383-9.227-20.612-20.61-20.612-11.384 0-20.611 9.229-20.611 20.612l-29.829 29.829V50.743c8.049-8.049 8.049-21.099 0-29.148-8.05-8.05-21.1-8.05-29.149 0s-8.049 21.1 0 29.148v42.185l-29.828-29.83c0-11.382-9.228-20.61-20.611-20.61-11.383 0-20.611 9.228-20.611 20.61 0 11.384 9.228 20.612 20.61 20.612l29.83 29.828H50.504c-8.05-8.049-21.1-8.048-29.15 0-8.048 8.05-8.048 21.1 0 29.15 8.05 8.048 21.1 8.048 29.15 0h42.183L62.86 172.515c-11.383 0-20.611 9.227-20.611 20.61 0 11.384 9.228 20.612 20.61 20.612 11.384 0 20.612-9.228 20.612-20.611l29.828-29.829v42.184c-8.049 8.049-8.049 21.1 0 29.149 8.05 8.049 21.1 8.049 29.15 0 8.048-8.05 8.048-21.1 0-29.15v-42.183l29.828 29.829c0 11.383 9.227 20.61 20.61 20.61 11.384 0 20.612-9.227 20.612-20.61 0-11.384-9.228-20.611-20.611-20.611l-29.83-29.829h42.185c8.05 8.05 21.1 8.05 29.148 0 8.05-8.049 8.05-21.1 0-29.149" fill="#FFB13B"/>
		</g>
	</symbol>
	<symbol id="facebook" viewBox="0 0 128 128">
		<g id="_x31__stroke"><g id="Facebook_1_"><rect fill="none" height="128" width="128"/><path clip-rule="evenodd" d="M68.369,128H7.065C3.162,128,0,124.836,0,120.935    V7.065C0,3.162,3.162,0,7.065,0h113.871C124.837,0,128,3.162,128,7.065v113.87c0,3.902-3.163,7.065-7.064,7.065H88.318V78.431    h16.638l2.491-19.318H88.318V46.78c0-5.593,1.553-9.404,9.573-9.404l10.229-0.004V20.094c-1.769-0.235-7.841-0.761-14.906-0.761    c-14.749,0-24.846,9.003-24.846,25.535v14.246H51.688v19.318h16.681V128z" fill="#0A66C2" fill-rule="evenodd"/></g>
		</g>
	</symbol>
	<symbol id="hamburguesa" viewBox="0 0 24 24">
	<defs><style>.c{fill:#4F46E5;}</style></defs><g id="a"/><g id="b"><circle class="c" cx="12" cy="12" r="2"/><circle class="c" cx="12" cy="5" r="2"/><circle class="c" cx="12" cy="19" r="2"/>
		</g>
	</symbol>
	<symbol id="js" viewBox="0 0 512 512">
<rect
width="512" height="512"
rx="15%"
fill="#f7df1e"/><path d="m324,370c10,17 24,29 47,29 20,0 33,-10 33,-24 0,-16 -13,-22 -35,-32l-12,-5c-35,-15 -58,-33 -58,-72 0,-36 27,-64 70,-64 31,0 53,11 68,39l-37,24c-8,-15 -17,-21 -31,-21 -14,0 -23,9 -23,21 0,14 9,20 30,29l12,5c41,18 64,35 64,76 0,43 -34,67 -80,67 -45,0 -74,-21 -88,-49zm-170,4c8,13 14,25 31,25 16,0 26,-6 26,-30V203h48v164c0,50 -29,72 -72,72 -39,0 -61,-20 -72,-44z"/>
	</symbol>
	<symbol id="tailwindcss" viewBox="0 0 64 64">
<defs> <linearGradient id="icon-waves-gradient" x1="0" y1="-21.333" x2="64" y2="85.333" gradientUnits="userSpaceOnUse"> <stop offset="0%" stop-color="#2383ae" /> <stop offset="100%" stop-color="#6dd7b9" /> </linearGradient> </defs>
<path fill="url(#icon-waves-gradient)" fill-rule="evenodd" d="M16 25.6c2.133-8.533 7.467-12.8 16-12.8 12.8 0 14.4 9.6 20.8 11.2 4.267 1.067 8-.533 11.2-4.8 C61.867 27.733 56.533 32 48 32 c-12.8 0-14.4-9.6-20.8-11.2 -4.267-1.067-8 .533-11.2 4.8z M0 44.8C2.133 36.267 7.467 32 16 32 c12.8 0 14.4 9.6 20.8 11.2 4.267 1.067 8-.533 11.2-4.8 -2.133 8.533-7.467 12.8-16 12.8 -12.8 0-14.4-9.6-20.8-11.2 -4.267-1.067-8 .533-11.2 4.8z" />
	</symbol>
	<symbol id="java" viewBox="80 40 350 420">
<rect width="512" height="512" rx="15%" fill="#ffffff" />
<path fill="#f8981d" d="M274 235c18 21-5 40-5 40s47-24 25-54 -35-42 48-90 C342 130 211 163 274 235 M294 53s40 40-38 100 c-62 49-14 77 0 109 -36-33-63-61-45-88 C238 134 310 115 294 53" />
<path fill="#5382a1" d="M206 347s-15 8 10 11 46 3 79-3 a137 137 0 0 0 21 10 C242 397 147 364 206 347 m-9-42s-16 12 9 15 58 4 102-5 a45 45 0 0 0 16 10 C233 351 132 327 197 305 m175 73s11 9-12 16 c-43 13-179 17-217 1 -14-6 15-17 33-17 -17-10-98 21-42 30 C287 432 412 396 372 378 M213 262s-69 16-25 22 c19 3 57 2 92-1 s57-8 57-8 a122 122 0 0 0-17 9 c-70 18-206 10-167-9 S213 262 213 262 m124 69c73-37 39-80 7-66 36-30 101 36-9 68 v-2 M220 432c69 4 174-2 176-35 0 0-5 12-57 22 s-131 10-174 3 C166 422 175 429 220 432" />
	</symbol>
	<symbol id="python" viewBox="0 0 32 32">
  <defs>
    <linearGradient id="python-blue"
                    x1="811.527"
                    y1="574.895"
                    x2="665.255"
                    y2="573.732"
                    gradientUnits="userSpaceOnUse">
      <stop offset="0" stop-color="#366a96"/>
      <stop offset="1" stop-color="#3679b0"/>
    </linearGradient>

    <linearGradient id="python-yellow"
                    x1="862.824"
                    y1="642.176"
                    x2="573.276"
                    y2="642.176"
                    gradientUnits="userSpaceOnUse">
      <stop offset="0" stop-color="#ffc836"/>
      <stop offset="1" stop-color="#ffe873"/>
    </linearGradient>
  </defs>

  <g transform="matrix(.1617 0 0 .158089 -107.53764 -81.66187)">
    <path fill="url(#python-blue)"
          d="M716.255 544.487c0-13.623 3.653-21.034 23.822-24.563
             13.693-2.4 31.25-2.7 47.627 0
             12.935 2.135 23.822 11.77 23.822 24.563
             v44.945c0 13.182-10.57 23.98-23.822 23.98
             h-47.627c-16.164 0-29.787 13.782-29.787 29.363
             v21.564h-16.376c-13.852 0-21.917-9.988-25.305-23.964
             -4.57-18.776-4.376-29.963 0-47.945
             3.794-15.687 15.917-23.964 29.77-23.964
             h65.52v-6h-47.645v-17.98z"/>

    <path fill="url(#python-yellow)"
          d="M811.527 688.32c0 13.623-11.823 20.523-23.822 23.964
             -18.052 5.188-32.54 4.394-47.627 0
             -12.6-3.67-23.822-11.17-23.822-23.964
             v-44.945c0-12.935 10.782-23.98 23.822-23.98
             h47.627c15.864 0 29.787-13.71 29.787-29.963
             v-20.964h17.858c13.87 0 20.4 10.305 23.822 23.964
             4.764 18.97 4.976 33.157 0 47.945
             -4.817 14.364-9.97 23.964-23.822 23.964
             H763.9v6h47.627v17.98z"/>

    <path fill="#ffffff"
          d="M728.166 541.505c0-4.976 3.988-9 8.93-9
             4.923 0 8.93 4.023 8.93 9
             0 4.96-4.006 8.982-8.93 8.982
             -4.94 0-8.93-4.023-8.93-8.982z
             m53.59 149.798c0-4.96 4.006-8.982 8.93-8.982
             4.94 0 8.93 4.023 8.93 8.982
             0 4.976-3.988 9-8.93 9
             -4.923 0-8.93-4.023-8.93-9z"/>
  </g>
	</symbol>
<symbol id="mysql" viewBox="0 0 32 32">
  <rect
    fill="#26557c"
    width="28"
    height="28"
    x="-30"
    y="-30"
    rx="1.4"
    ry="1.4"
    transform="matrix(0,-1,-1,0,0,0)"
  />

  <path
    opacity=".2"
    d="m8.0254 8.0001c-0.7825-0.0166-1.1494 0.5244-0.9883 1.457 0.052 0.3006 0.3152 0.7299 0.8828 1.4419 0.63122 0.7909 0.88514 1.2227 1.1602 1.9707 0.4336 1.1793 0.63403 1.5748 0.98633 1.9434 0.27366 0.2863 0.27369 0.28712 0.08984 0.87109-0.28507 0.90556-0.34407 2.7207-0.11523 3.5742 0.34248 1.2774 0.76402 1.8574 1.3516 1.8574 0.41968 0 0.76364-0.35092 0.88672-0.9043 0.04268-0.19186 0.12249-0.46607 0.17773-0.60938 0.09535-0.24728 0.12093-0.22818 0.49414 0.38086 0.21628 0.35296 0.62866 0.87861 0.91602 1.168 0.6638 0.66845 1.5749 1.4217 1.6406 1.3574 0.02775-0.02713-0.238-0.42177-0.58984-0.87891s-1.0151-1.5189-1.4746-2.3594c-0.53593-0.98029-0.8997-1.5286-1.0137-1.5293-0.37045-0.0025-0.71588 0.58004-0.91602 1.5469-0.23056 1.1138-0.63675 0.92708-0.9668-0.44531-0.19019-0.79085-0.09106-1.856 0.26367-2.8535 0.16137-0.45376 0.29297-0.87373 0.29297-0.93164s-0.25731-0.54348-0.57227-1.0801c-0.315-0.537-0.6851-1.297-0.822-1.69-0.3326-0.954-0.4905-1.232-1.1582-2.043-0.6879-0.8346-0.753-1.2203-0.2051-1.2166 0.42554 0.00281 1.1123 0.28944 1.8027 0.75391 0.4371 0.29404 0.58523 0.33398 1.2871 0.33398 0.88142 0 1.0709 0.0722 2.293 0.87695 1.2445 0.81958 2.1722 1.5813 2.8145 2.3125 0.5704 0.64937 0.88201 1.2138 2.5605 4.6562 0.64433 1.3214 1.2158 1.9593 2.0039 2.2324 1.2173 0.42185 1.6317 0.61314 2.168 0.99805l0.56641 0.40625-0.38086 0.07422c-0.2103 0.04033-0.66847 0.10616-1.0176 0.14648-0.72741 0.084-1.2031 0.38573-1.2031 0.76367 0 0.42592 1.4513 1.6453 2.9062 2.4414 0.69903 0.38247 1.3716 0.75927 1.4941 0.83789 0.32598 0.20922 0.41424 0.18389 0.33008-0.0918-0.17624-0.57738-0.77279-1.1398-2.4297-2.2949-0.97197-0.6776-0.98199-0.65244 0.31641-0.78125 0.925-0.091 1.392-0.249 1.392-0.472 0-0.102-0.47-0.644-1.045-1.203-0.9-0.876-1.204-1.094-2.195-1.577-1.35-0.656-1.842-1.177-2.153-2.283-0.464-1.649-1.712-3.587-3.371-5.23-1.712-1.696-3.347-2.6344-4.845-2.7814-0.609-0.0598-0.924-0.1522-1.239-0.3653-0.5332-0.3611-1.7717-0.7684-2.3766-0.7812z"
  />

  <path
    fill="#fff"
    d="m8.0254 7c-0.7825-0.0166-1.1494 0.5244-0.9883 1.457 0.052 0.3006 0.3152 0.7302 0.8828 1.4414 0.6312 0.7906 0.8852 1.2226 1.1602 1.9706 0.4336 1.179 0.634 1.575 0.9859 1.943 0.274 0.287 0.274 0.288 0.09 0.872-0.2848 0.905-0.3438 2.72-0.115 3.574 0.342 1.277 0.764 1.857 1.352 1.857 0.419 0 0.763-0.351 0.886-0.904 0.043-0.192 0.123-0.466 0.178-0.609 0.095-0.248 0.121-0.229 0.494 0.38 0.216 0.353 0.629 0.879 0.916 1.168 0.664 0.669 1.575 1.422 1.641 1.358 0.028-0.027-0.238-0.422-0.59-0.879s-1.015-1.519-1.475-2.359c-0.536-0.981-0.899-1.529-1.013-1.53-0.371-0.002-0.716 0.58-0.916 1.547-0.231 1.114-0.637 0.927-0.967-0.445-0.19-0.791-0.091-1.856 0.264-2.854 0.161-0.453 0.293-0.873 0.293-0.931s-0.258-0.544-0.573-1.08c-0.315-0.537-0.6851-1.297-0.822-1.69-0.3326-0.954-0.4905-1.232-1.1582-2.0429-0.6879-0.8348-0.753-1.2204-0.2051-1.2168 0.4255 0.0029 1.1123 0.2895 1.8023 0.7539 0.438 0.2941 0.586 0.334 1.288 0.334 0.881 0 1.07 0.0722 2.293 0.877 1.244 0.8198 2.172 1.5818 2.814 2.3128 0.57 0.649 0.882 1.214 2.561 4.656 0.644 1.321 1.215 1.959 2.003 2.232 1.218 0.422 1.632 0.613 2.168 0.998l0.567 0.407-0.381 0.074c-0.21 0.04-0.669 0.106-1.018 0.146-0.727 0.084-1.203 0.386-1.203 0.764 0 0.426 1.451 1.645 2.906 2.441 0.7 0.383 1.372 0.76 1.495 0.838 0.326 0.21 0.414 0.184 0.33-0.091-0.177-0.578-0.773-1.14-2.43-2.295-0.972-0.678-0.982-0.653 0.316-0.782 0.926-0.092 1.393-0.25 1.393-0.472 0-0.102-0.47-0.644-1.045-1.203-0.9-0.877-1.204-1.094-2.195-1.577-1.35-0.656-1.842-1.177-2.153-2.283-0.464-1.65-1.712-3.587-3.371-5.23-1.712-1.6965-3.347-2.6345-4.845-2.7815-0.609-0.0598-0.924-0.1522-1.239-0.3653-0.5332-0.3611-1.7717-0.7684-2.3766-0.7812z"
  />
  <path
    fill="#fff"
    opacity=".1"
    d="m3.4004 2c-0.7756 0-1.4004 0.6248-1.4004 1.4004v1c0-0.7756 0.6248-1.4004 1.4004-1.4004h25.2c0.775 0 1.4 0.6248 1.4 1.4004v-1c0-0.7756-0.625-1.4004-1.4-1.4004h-25.2z"
  />
  <path
    opacity=".2"
    d="m2 28.6v1c0 0.775 0.6248 1.4 1.4004 1.4h25.2c0.775 0 1.4-0.625 1.4-1.4v-1c0 0.775-0.625 1.4-1.4 1.4h-25.2c-0.7752 0-1.4-0.625-1.4-1.4z"
  />
</symbol>
<symbol id="gmail" viewBox="0 0 512 512">
  <path fill="#f2f2f2" d="M75 120h362v272H75z"/>
  <path fill="#d54c3f" d="M120 392H97c-12 0-22-10-22-23V143h45z"/>
  <path fill="#b63524" d="M392 392h23c12 0 22-10 22-23V143h-45z"/>
  <path fill="rgba(0,0,0,0.05)" d="M256 286L120 392V187z"/>
  <path fill="rgba(0,0,0,0.08)" d="M82 159l235 233h75V159z"/>
  <path
    d="M97 143l159 115 159-115"
    fill="none"
    stroke="#de5145"
    stroke-width="45"
    stroke-linecap="round"
  />
  <path fill="#f2f2f2" d="M415 120c-5 0-10 2-13 4L256 230 110 124c-3-2-8-4-13-4z"/>
</symbol>

<symbol id="sonido-on" viewBox="0 0 256 256">
  <!-- Cuerpo del altavoz -->
  <path
  d="M40 96 H88 L140 48 V208 L88 160 H40 Z"
  fill="#ffffff"
  stroke="#F9A569"
  stroke-width="20"
  stroke-linejoin="round"
/>

  <!-- Onda interior -->
  <path
    d="M168 96
       a44 44 0 0 1 0 64"
    fill="none"
    stroke="#F9A569"
    stroke-width="18"
    stroke-linecap="round"
  />

  <!-- Onda exterior -->
  <path
    d="M188 72
       a76 76 0 0 1 0 112"
    fill="none"
    stroke="#F9A569"
    stroke-width="18"
    stroke-linecap="round"
  />
</symbol>
<symbol id="sonido-off" viewBox="0 0 256 256">
  <!-- Cuerpo del altavoz -->
  <path
  d="M40 96 H88 L140 48 V208 L88 160 H40 Z"
  fill="#ffffff"
  stroke="#F9A569"
  stroke-width="20"
  stroke-linejoin="round"
/>

  <!-- X de mute -->
  <path
    d="M176 104
       L216 144
       M216 104
       L176 144"
    stroke="#F9A569"
    stroke-width="20"
    stroke-linecap="round"
  />
</symbol>
<symbol id="springboot" viewBox="0 0 24 24">
<title>Spring Boot</title>
<path fill="#79B634" d="m23.693 10.7058-4.73-8.1844c-.4094-.7106-1.4166-1.2942-2.2402-1.2942H7.2725c-.819 0-1.8308.5836-2.2402 1.2942L.307 10.7058c-.4095.7106-.4095 1.873 0 2.5837l4.7252 8.189c.4094.7107 1.4166 1.2943 2.2402 1.2943h9.455c.819 0 1.826-.5836 2.2402-1.2942l4.7252-8.189c.4095-.7107.4095-1.8732 0-2.5838zM10.9763 5.7547c0-.5365.4377-.9742.9742-.9742s.9742.4377.9742.9742v5.8217c0 .5366-.4377.9742-.9742.9742s-.9742-.4376-.9742-.9742zm.9742 12.4294c-3.6427 0-6.6077-2.965-6.6077-6.6077.0047-2.0896.993-4.0521 2.6685-5.304a.8657.8657 0 0 1 1.2142.1788.8657.8657 0 0 1-.1788 1.2143c-2.1602 1.6048-2.612 4.6592-1.0072 6.8194 1.6049 2.1603 4.6593 2.612 6.8195 1.0072 1.2378-.9177 1.9673-2.372 1.9673-3.9157a4.8972 4.8972 0 0 0-1.9861-3.925c-.386-.2824-.466-.8284-.1836-1.2143.2824-.386.8283-.466 1.2143-.1835 1.6895 1.2471 2.6826 3.2238 2.6873 5.3228 0 3.6474-2.965 6.6077-6.6077 6.6077z"/>
</symbol>

	</svg>